<svg width="129" height="54" viewBox="0 0 129 54" fill="currentColor" xmlns="http://www.w3.org/2000/svg">
<path d="M16.3635 37.368C16.3635 39.16 15.5955 40.6533 14.0595 41.848C12.5662 43.0427 10.6035 43.64 8.1715 43.64C5.7395 43.64 3.8195 43.0853 2.4115 41.976C1.0035 40.8667 0.2995 39.2453 0.2995 37.112V7.544C0.2995 5.41066 1.02483 3.74666 2.4755 2.552C3.92617 1.35733 5.8675 0.759998 8.2995 0.759998C10.7742 0.759998 12.7368 1.31467 14.1875 2.424C15.6382 3.49067 16.3635 4.89867 16.3635 6.648V14.584C16.3635 15.352 15.8088 15.8853 14.6995 16.184C14.1022 16.3547 13.5048 16.44 12.9075 16.44C12.3102 16.44 11.7128 16.376 11.1155 16.248C11.2435 15.224 11.3075 14.136 11.3075 12.984V7.544C11.3075 6.73333 11.0302 6.11467 10.4755 5.688C9.92083 5.21866 9.1955 4.984 8.2995 4.984C7.4035 4.984 6.67817 5.21866 6.1235 5.688C5.6115 6.11467 5.3555 6.73333 5.3555 7.544V36.856C5.3555 37.624 5.6115 38.2427 6.1235 38.712C6.67817 39.1813 7.4035 39.416 8.2995 39.416C9.1955 39.416 9.92083 39.2027 10.4755 38.776C11.0302 38.3067 11.3075 37.6667 11.3075 36.856V35.448L11.1155 32.184C11.7128 32.056 12.3102 31.992 12.9075 31.992C13.5048 31.992 14.1022 32.0773 14.6995 32.248C15.8088 32.5467 16.3635 33.08 16.3635 33.848V37.368ZM20.1105 37.112V17.784C20.1105 15.6507 20.7718 13.9867 22.0945 12.792C23.4172 11.5973 25.2092 11 27.4705 11C29.7318 11 31.4812 11.5547 32.7185 12.664C33.9985 13.7733 34.6385 15.3947 34.6385 17.528V36.856C34.6385 38.9893 33.9558 40.6533 32.5905 41.848C31.2678 43.0427 29.4758 43.64 27.2145 43.64C24.9532 43.64 23.2038 43.0853 21.9665 41.976C20.7292 40.8667 20.1105 39.2453 20.1105 37.112ZM24.9105 17.528V37.112C24.9105 37.8373 25.1452 38.456 25.6145 38.968C26.0838 39.4373 26.6598 39.672 27.3425 39.672C28.0678 39.672 28.6652 39.4373 29.1345 38.968C29.6038 38.456 29.8385 37.8373 29.8385 37.112V17.528C29.8385 16.8027 29.6038 16.2053 29.1345 15.736C28.6652 15.224 28.0678 14.968 27.3425 14.968C26.6598 14.968 26.0838 15.224 25.6145 15.736C25.1452 16.2053 24.9105 16.8027 24.9105 17.528ZM44.3035 37.752C44.3035 39.8 44.4528 41.5067 44.7515 42.872C43.4715 43.128 42.0848 43.256 40.5915 43.256C39.8662 43.256 39.5035 42.936 39.5035 42.296V16.952C39.5035 16.056 39.3328 15.416 38.9915 15.032C38.6928 14.648 38.0955 14.456 37.1995 14.456C37.1568 13.3467 37.4342 12.4933 38.0315 11.896C38.6715 11.2987 39.5675 11 40.7195 11C42.4262 11 43.4928 11.8533 43.9195 13.56C44.9862 11.8533 46.5008 11 48.4635 11C51.9622 11 53.7115 12.6853 53.7115 16.056V22.456C53.7115 23.1813 53.1995 23.672 52.1755 23.928C51.6635 24.0987 51.1088 24.184 50.5115 24.184C49.9568 24.184 49.4022 24.12 48.8475 23.992C48.9755 23.0533 49.0395 22.0507 49.0395 20.984V17.72C49.0395 16.312 48.3995 15.608 47.1195 15.608C46.5222 15.608 45.9675 15.8853 45.4555 16.44C44.9435 16.9947 44.5595 17.6133 44.3035 18.296V37.752ZM71.841 38.072C71.841 39.864 71.1583 41.2507 69.793 42.232C68.4277 43.1707 66.6783 43.64 64.545 43.64C62.4543 43.64 60.769 43.1067 59.489 42.04C58.2517 40.9307 57.633 39.4587 57.633 37.624V15.48L55.649 15.8C55.3503 14.6907 55.201 13.7307 55.201 12.92C55.201 12.0667 55.4783 11.64 56.033 11.64H57.761L58.657 5.624C58.8277 4.68533 59.617 4.216 61.025 4.216C61.4517 4.216 61.921 4.25867 62.433 4.344V11.64H68.001L71.329 11.32C71.5423 12.4293 71.649 13.4107 71.649 14.264C71.649 15.0747 71.3717 15.48 70.817 15.48H62.433V36.856C62.433 37.752 62.6463 38.456 63.073 38.968C63.5423 39.4373 64.1183 39.672 64.801 39.672C66.3797 39.672 67.169 38.6267 67.169 36.536V31.864L66.977 28.856C67.5317 28.728 68.0863 28.664 68.641 28.664C69.2383 28.664 69.793 28.7493 70.305 28.92C71.329 29.176 71.841 29.6667 71.841 30.392V38.072ZM84.654 17.848C84.654 16.9947 84.398 16.3333 83.886 15.864C83.374 15.352 82.734 15.096 81.966 15.096C80.3873 15.096 79.598 15.7573 79.598 17.08V26.232L82.67 23.928C83.9927 22.9467 84.654 20.92 84.654 17.848ZM74.798 37.304V17.272C74.798 13.0907 77.2513 11 82.158 11C87.1073 11 89.582 13.3467 89.582 18.04C89.582 19.9173 89.2407 21.6453 88.558 23.224C87.8753 24.8027 86.9367 25.9973 85.742 26.808L79.598 31.032V36.856C79.598 38.648 80.43 39.544 82.094 39.544C83.8007 39.544 84.654 38.5413 84.654 36.536V35.064L84.462 32.056C85.0167 31.928 85.5713 31.864 86.126 31.864C86.7233 31.864 87.278 31.9493 87.79 32.12C88.814 32.376 89.326 32.8667 89.326 33.592V38.2C89.326 39.9067 88.6433 41.2507 87.278 42.232C85.9553 43.1707 84.1847 43.64 81.966 43.64C77.1873 43.64 74.798 41.528 74.798 37.304ZM93.304 42.232V7.544C93.304 5.41066 94.0293 3.74666 95.48 2.552C96.9307 1.35733 98.9147 0.759998 101.432 0.759998C103.949 0.759998 105.891 1.31467 107.256 2.424C108.664 3.53333 109.368 5.15466 109.368 7.288V37.56C109.368 38.456 109.539 39.096 109.88 39.48C110.264 39.8213 110.904 39.992 111.8 39.992C111.8 42.424 110.435 43.64 107.704 43.64C105.443 43.64 104.312 42.168 104.312 39.224V27H98.36V36.984L98.616 43C97.1653 43.2133 95.736 43.32 94.328 43.32C93.6453 43.32 93.304 42.9573 93.304 42.232ZM98.36 7.544V22.776H104.312V7.544C104.312 6.73333 104.035 6.11467 103.48 5.688C102.925 5.21866 102.2 4.984 101.304 4.984C100.408 4.984 99.6827 5.21866 99.128 5.688C98.616 6.11467 98.36 6.73333 98.36 7.544ZM123.714 15.736H121.218C120.492 15.736 119.895 15.9707 119.426 16.44C118.999 16.8667 118.786 17.4427 118.786 18.168V37.048C118.786 38.4987 119.426 39.224 120.706 39.224C121.986 39.224 122.988 38.5627 123.714 37.24V15.736ZM128.514 11.64V48.12L128.962 52.344C127.81 52.8133 126.487 53.048 124.994 53.048C124.14 53.048 123.714 52.728 123.714 52.088V41.976C122.391 43.0853 121.026 43.64 119.618 43.64C115.863 43.64 113.986 41.464 113.986 37.112V18.424C113.986 16.2907 114.647 14.6267 115.97 13.432C117.292 12.2373 119.084 11.64 121.345 11.64H128.514Z" fill="black"/>
</svg>
